<mxfile host="app.diagrams.net" modified="2021-11-06T03:12:50.306Z" agent="5.0 (Windows NT 10.0; Win64; x64) AppleWebKit/537.36 (KHTML, like Gecko) Chrome/95.0.4638.69 Safari/537.36" etag="BHAW7snsW9VZMcw6xP7t" version="15.7.0" type="github">
  <diagram id="ErkYsqY9yymEqIrH-Hqw" name="Page-1">
    <mxGraphModel dx="1550" dy="912" grid="1" gridSize="10" guides="1" tooltips="1" connect="1" arrows="1" fold="1" page="1" pageScale="1" pageWidth="827" pageHeight="1169" math="0" shadow="0">
      <root>
        <mxCell id="0" />
        <mxCell id="1" parent="0" />
        <mxCell id="VjLuzG_HvJ4DDWpIjxFl-3" value="" style="html=1;shadow=0;dashed=0;align=center;verticalAlign=middle;shape=mxgraph.arrows2.arrow;dy=0.6;dx=40;flipH=1;notch=0;" vertex="1" parent="1">
          <mxGeometry x="109" y="420" width="170" height="70" as="geometry" />
        </mxCell>
        <mxCell id="VjLuzG_HvJ4DDWpIjxFl-4" value="" style="html=1;shadow=0;dashed=0;align=center;verticalAlign=middle;shape=mxgraph.arrows2.arrow;dy=0.6;dx=40;notch=0;" vertex="1" parent="1">
          <mxGeometry x="559" y="420" width="160" height="70" as="geometry" />
        </mxCell>
        <mxCell id="VjLuzG_HvJ4DDWpIjxFl-7" value="" style="html=1;shadow=0;dashed=0;align=center;verticalAlign=middle;shape=mxgraph.arrows2.arrow;dy=0.6;dx=40;direction=north;notch=0;" vertex="1" parent="1">
          <mxGeometry x="398" y="180" width="70" height="150" as="geometry" />
        </mxCell>
        <mxCell id="VjLuzG_HvJ4DDWpIjxFl-8" value="" style="html=1;shadow=0;dashed=0;align=center;verticalAlign=middle;shape=mxgraph.arrows2.arrow;dy=0.6;dx=40;direction=south;notch=0;" vertex="1" parent="1">
          <mxGeometry x="398" y="580" width="70" height="160" as="geometry" />
        </mxCell>
        <mxCell id="VjLuzG_HvJ4DDWpIjxFl-9" value="&lt;h1&gt;俯仰轴&lt;/h1&gt;" style="text;html=1;align=center;verticalAlign=middle;resizable=0;points=[];autosize=1;strokeColor=none;fillColor=none;" vertex="1" parent="1">
          <mxGeometry x="389" y="130" width="90" height="50" as="geometry" />
        </mxCell>
        <mxCell id="VjLuzG_HvJ4DDWpIjxFl-10" value="&lt;h1&gt;航向轴&lt;/h1&gt;" style="text;html=1;align=center;verticalAlign=middle;resizable=0;points=[];autosize=1;strokeColor=none;fillColor=none;" vertex="1" parent="1">
          <mxGeometry x="719" y="427.5" width="90" height="50" as="geometry" />
        </mxCell>
        <mxCell id="VjLuzG_HvJ4DDWpIjxFl-11" value="&lt;h1&gt;横滚轴&lt;/h1&gt;" style="text;html=1;align=center;verticalAlign=middle;resizable=0;points=[];autosize=1;strokeColor=none;fillColor=none;" vertex="1" parent="1">
          <mxGeometry x="389" y="427.5" width="90" height="50" as="geometry" />
        </mxCell>
        <mxCell id="VjLuzG_HvJ4DDWpIjxFl-13" value="" style="html=1;shadow=0;dashed=0;align=center;verticalAlign=middle;shape=mxgraph.arrows2.bendDoubleArrow;dy=15;dx=38;arrowHead=55;rounded=1;rotation=-180;" vertex="1" parent="1">
          <mxGeometry x="399" y="410" width="120" height="120" as="geometry" />
        </mxCell>
        <mxCell id="VjLuzG_HvJ4DDWpIjxFl-14" value="" style="html=1;shadow=0;dashed=0;align=center;verticalAlign=middle;shape=mxgraph.arrows2.bendDoubleArrow;dy=15;dx=38;arrowHead=55;rounded=1;rotation=0;" vertex="1" parent="1">
          <mxGeometry x="339" y="370" width="120" height="120" as="geometry" />
        </mxCell>
        <mxCell id="VjLuzG_HvJ4DDWpIjxFl-15" value="&lt;h1&gt;俯仰轴&lt;/h1&gt;" style="text;html=1;align=center;verticalAlign=middle;resizable=0;points=[];autosize=1;strokeColor=none;fillColor=none;" vertex="1" parent="1">
          <mxGeometry x="389" y="750" width="90" height="50" as="geometry" />
        </mxCell>
        <mxCell id="VjLuzG_HvJ4DDWpIjxFl-16" value="&lt;h1&gt;航向轴&lt;/h1&gt;" style="text;html=1;align=center;verticalAlign=middle;resizable=0;points=[];autosize=1;strokeColor=none;fillColor=none;" vertex="1" parent="1">
          <mxGeometry x="19" y="427.5" width="90" height="50" as="geometry" />
        </mxCell>
      </root>
    </mxGraphModel>
  </diagram>
</mxfile>
